<?xml version="1.0" encoding="UTF-8"?>
<svg version="1.1" xmlns="http://www.w3.org/2000/svg" width="1536" height="1024">
<!-- Background removed for transparency -->
<path d="M0 0 C1.01597511 -0.00503792 1.01597511 -0.00503792 2.05247498 -0.01017761 C4.27686431 -0.01962401 6.50117783 -0.0216277 8.72558594 -0.02270508 C10.28489207 -0.02592265 11.8441979 -0.02928709 13.40350342 -0.03279114 C16.66826069 -0.03876708 19.93299155 -0.04063268 23.19775391 -0.04003906 C27.35782954 -0.03993767 31.51773363 -0.05357317 35.67776871 -0.07081127 C38.89848592 -0.08199406 42.11916253 -0.08395633 45.33989716 -0.08342934 C46.87231791 -0.08460065 48.40474001 -0.08897412 49.93714142 -0.0967617 C72.63778835 -0.20130472 72.63778835 -0.20130472 81.95996094 6.14526367 C87.91868593 12.10398867 90.28812179 17.89461569 90.35115051 26.13670349 C90.34194077 26.99417679 90.33273102 27.85165009 90.32324219 28.73510742 C90.32398994 30.09014122 90.32398994 30.09014122 90.32475281 31.47254944 C90.32242252 33.37446299 90.31275608 35.27638024 90.29614258 37.17822266 C90.2725608 40.07051539 90.27558875 42.96188355 90.28222656 45.85424805 C90.27664828 47.71037327 90.26953746 49.56649465 90.26074219 51.42260742 C90.26165359 52.27805649 90.262565 53.13350555 90.26350403 54.01487732 C90.1704775 61.99486261 89.07756863 68.71169972 83.95996094 75.14526367 C76.3350174 82.3580481 67.41955109 83.24625344 57.34741211 83.32226562 C56.25806618 83.33212242 56.25806618 83.33212242 55.14671326 83.34217834 C52.7654507 83.36173968 50.3842506 83.37353377 48.00292969 83.38354492 C47.18335596 83.38762045 46.36378223 83.39169598 45.51937294 83.395895 C41.18308395 83.41668027 36.84682592 83.4310157 32.51049805 83.44042969 C28.05547275 83.4514929 23.600947 83.48591336 19.14609814 83.52560139 C15.69805532 83.55185764 12.25013021 83.56012935 8.80199623 83.56371117 C7.16069467 83.56855194 5.51939748 83.58009348 3.87819481 83.59874916 C-6.43107004 83.70867762 -15.74478674 83.65186139 -23.97753906 76.64526367 C-24.99847656 75.40776367 -24.99847656 75.40776367 -26.04003906 74.14526367 C-26.59691406 73.52651367 -27.15378906 72.90776367 -27.72753906 72.27026367 C-31.43387585 66.26952793 -31.35949921 59.73320959 -31.37597656 52.89916992 C-31.38263336 51.92922592 -31.38929016 50.95928192 -31.39614868 49.95994568 C-31.40623445 47.91683843 -31.41096697 45.87369852 -31.41064453 43.83056641 C-31.41502083 40.72071704 -31.45139284 37.61228464 -31.48925781 34.50268555 C-31.49512636 32.50985182 -31.4990955 30.5170114 -31.50097656 28.52416992 C-31.5153476 27.60309952 -31.52971863 26.68202911 -31.54452515 25.73304749 C-31.49575375 18.77601886 -29.88665896 13.52272178 -25.36425781 8.15698242 C-17.52573522 1.81507512 -9.97099836 0.03120936 0 0 Z " fill="#17B0EC" transform="translate(315.0400390625,431.854736328125)"/>
<path d="M0 0 C6.87909564 12.44091765 10.47563855 26.27962221 14.375 39.875 C14.76302253 41.21969167 15.15120904 42.56433603 15.53955078 43.90893555 C18.31227099 53.52695669 21.03147159 63.15995575 23.70458984 72.80615234 C25.19109516 78.16328526 26.73088697 83.49832061 28.35595703 88.81518555 C28.96053046 90.8661058 29.4978498 92.92190257 30 95 C34.72211216 91.66674436 37.68726557 87.64119139 41 83 C48.21408451 72.89295775 48.21408451 72.89295775 54 70 C56.99998757 69.90104914 59.97676865 69.86374818 62.97705078 69.87060547 C63.91248687 69.86887581 64.84792295 69.86714615 65.81170559 69.86536407 C68.93959216 69.86098623 72.06742518 69.8639618 75.1953125 69.8671875 C77.3967236 69.86617353 79.59813457 69.86483506 81.79954529 69.8631897 C87.69231776 69.86048742 93.585064 69.86495119 99.47783279 69.87142944 C103.10850351 69.87498385 106.7391703 69.87661411 110.36984253 69.87768555 C145.25587232 69.89051548 180.12465661 70.07855182 215 71 C215 71.66 215 72.32 215 73 C214.2383403 73.04345047 213.4766806 73.08690094 212.69194031 73.13166809 C170.40602011 75.40214086 170.40602011 75.40214086 128.1875 78.625 C127.52177979 78.68544495 126.85605957 78.74588989 126.17016602 78.8081665 C123.00656784 79.09605822 119.84312816 79.38567627 116.6796875 79.67529297 C98.11850164 81.31318954 79.63643941 82.34870677 61 82 C60.54294678 82.9278833 60.54294678 82.9278833 60.07666016 83.87451172 C54.93479982 94.02531355 46.41487313 106.79256343 36 112 C30.79814462 112.51848559 26.36439629 112.62018013 21.5625 110.4375 C18.57355097 107.59435336 16.74207986 104.68391207 15 101 C14.53388306 100.05979004 14.53388306 100.05979004 14.05834961 99.10058594 C11.05799753 92.73835714 9.35194469 86.25377393 7.6875 79.4375 C3.13013226 61.35229638 -2.08122679 43.50626368 -7.8671875 25.77612305 C-8.14691406 24.91414307 -8.42664062 24.05216309 -8.71484375 23.1640625 C-9.08790649 22.02638428 -9.08790649 22.02638428 -9.46850586 20.86572266 C-10 19 -10 19 -10 17 C-22.86286284 29.24189704 -28.78362421 47.2309343 -34.8046875 63.51953125 C-35.04424667 64.16433441 -35.28380585 64.80913757 -35.53062439 65.47348022 C-36.71301273 68.65956908 -37.87862186 71.84916935 -39.01879883 75.05078125 C-41.73897904 82.47417187 -44.52245271 89.97463021 -51.3125 94.5625 C-57.14202795 95.51149292 -60.94523945 95.38141899 -66.00390625 91.98046875 C-71.43463964 87.69703741 -76.30304209 82.92719613 -80.59765625 77.49609375 C-82.03621059 75.7235437 -82.03621059 75.7235437 -85 75 C-86.79635875 75.75852734 -88.5889005 76.52942871 -90.34650898 77.3738699 C-100.72938154 82.31414292 -109.53048399 82.90292787 -120.86328125 82.55859375 C-122.77683819 82.52747933 -124.69044345 82.49923711 -126.6040802 82.47349548 C-132.1395761 82.38680603 -137.67277963 82.24748164 -143.20691681 82.09877777 C-147.23606087 81.99385261 -151.26533999 81.90127088 -155.29486084 81.81231689 C-175.09925874 81.37252568 -194.9004523 80.84173869 -214.70158494 80.27502 C-221.42589486 80.0829901 -228.15039211 79.89833139 -234.87495726 79.71548563 C-242.24503223 79.51499171 -249.61498653 79.31037006 -256.98488808 79.10360527 C-260.08307074 79.01670876 -263.18128451 78.93108543 -266.27953148 78.84651375 C-269.90562736 78.74729307 -273.53160123 78.64438851 -277.15751457 78.53871346 C-279.10171841 78.48286156 -281.04602138 78.43049374 -282.99032593 78.37826538 C-289.00908185 78.19915551 -294.9551787 77.87687941 -300.94076061 77.21797848 C-303.33502296 76.96453652 -305.70950979 76.85078473 -308.11645508 76.81054688 C-308.98889359 76.79382935 -309.86133209 76.77711182 -310.76020813 76.7598877 C-311.67078476 76.74631226 -312.58136139 76.73273682 -313.51953125 76.71875 C-314.49879074 76.70034058 -315.47805023 76.68193115 -316.48698425 76.66296387 C-319.59543457 76.60481613 -322.70393906 76.55186994 -325.8125 76.5 C-348.7814005 76.10936623 -348.7814005 76.10936623 -359.8046875 75.53515625 C-374.5146525 74.7701785 -389.24110579 74.42085463 -403.96417236 74.00421143 C-407.92732857 73.89162586 -411.89041866 73.77675811 -415.85351562 73.66210938 C-423.5689491 73.43923208 -431.2844495 73.21879293 -439 73 C-439 72.34 -439 71.68 -439 71 C-389.97831964 70.35646813 -340.96238826 69.92629762 -291.93609262 69.98745823 C-282.91321896 69.99861538 -273.89037268 70.00182311 -264.86749268 69.99975586 C-263.58342049 69.99951007 -262.29934831 69.99926428 -260.97636485 69.99901104 C-255.77729494 69.99790775 -250.57822528 69.9965985 -245.37915564 69.99458122 C-230.12696294 69.98898028 -214.87516735 70.00462239 -199.62308858 70.05843425 C-188.41913552 70.09719544 -177.21552069 70.10096723 -166.01150048 70.07515907 C-159.80815739 70.06204707 -153.60575853 70.06426832 -147.40252304 70.10620117 C-141.64374079 70.14489828 -135.88650179 70.14138452 -130.12771225 70.10607719 C-128.03478245 70.10057372 -125.94174406 70.11016042 -123.84897614 70.13676643 C-109.69270564 70.30534455 -100.70941309 67.9774122 -89 60 C-85.19609789 57.90886851 -82.7721289 57.54076901 -78.46533203 58.14013672 C-73.36033894 59.9206661 -70.01941372 64.17398626 -66.4375 68.0625 C-65.61958984 68.91650391 -64.80167969 69.77050781 -63.95898438 70.65039062 C-61.95327404 72.74993536 -59.96865824 74.86577452 -58 77 C-55.36230497 74.36230497 -54.81576653 71.91228439 -53.64453125 68.3671875 C-53.18643303 66.99739856 -52.72809039 65.62769135 -52.26953125 64.25805664 C-52.03186035 63.54167023 -51.79418945 62.82528381 -51.54931641 62.08718872 C-34.86127558 11.98366853 -34.86127558 11.98366853 -17.1171875 1.93359375 C-11.58883205 -0.5619999 -5.95889006 -0.29575373 0 0 Z " fill="#109DE8" transform="translate(1127,455)"/>
<path d="M0 0 C13.86 0 27.72 0 42 0 C42 50.49 42 100.98 42 153 C28.14 153 14.28 153 0 153 C0 102.51 0 52.02 0 0 Z " fill="#1596E4" transform="translate(1296,359)"/>
<path d="M0 0 C11.488125 -0.061875 22.97625 -0.12375 34.8125 -0.1875 C38.41905518 -0.21481201 42.02561035 -0.24212402 45.74145508 -0.27026367 C50.1986084 -0.28381348 50.1986084 -0.28381348 52.29545593 -0.28633118 C53.73750092 -0.29089113 55.1795356 -0.30134338 56.62150574 -0.31672668 C78.38650585 -0.53699897 78.38650585 -0.53699897 85.5625 5.8125 C90.89037364 11.45656792 90.33569731 19.07030016 90.3125 26.3125 C90.32861328 27.30701172 90.34472656 28.30152344 90.36132812 29.32617188 C90.36633097 36.94550018 89.2425982 43.31573152 85.25 49.875 C78.73210652 56.03078829 71.3204073 55.40133037 62.84765625 55.29296875 C61.59238632 55.28872391 60.33711639 55.28447906 59.04380798 55.28010559 C55.72770663 55.26620628 52.41223948 55.23931502 49.09631348 55.20599365 C45.7042393 55.17514921 42.31209732 55.16140465 38.91992188 55.14648438 C32.27959402 55.11603347 25.6403672 55.05729943 19 55 C19 63.25 19 71.5 19 80 C12.73 80 6.46 80 0 80 C0 53.6 0 27.2 0 0 Z " fill="#17B3EA" transform="translate(569,432)"/>
<path d="M0 0 C1.86614641 0.00560664 3.73229728 0.00987168 5.59844971 0.01286316 C10.47119694 0.0242279 15.3436689 0.05362143 20.21630859 0.0869751 C25.2040637 0.11785808 30.191864 0.13140717 35.1796875 0.14648438 C44.93763939 0.17850052 54.69531606 0.23119844 64.453125 0.29296875 C64.453125 6.89296875 64.453125 13.49296875 64.453125 20.29296875 C61.95451904 20.30755127 59.45591309 20.32213379 56.8815918 20.3371582 C48.63526676 20.3874475 40.38913168 20.45403234 32.14299297 20.52868366 C27.14230135 20.57345173 22.14169241 20.61269355 17.14086914 20.6394043 C12.31669622 20.6653732 7.49284042 20.70572975 2.6688633 20.75615501 C0.82647451 20.77286725 -1.01596918 20.78435432 -2.85842323 20.79058266 C-5.43500811 20.80017658 -8.0107737 20.82817828 -10.5871582 20.8605957 C-11.35248367 20.85916061 -12.11780914 20.85772552 -12.90632629 20.85624695 C-16.9390981 20.92447787 -16.9390981 20.92447787 -20.52108765 22.60087585 C-22.29966197 25.53473244 -21.95154215 28.80828745 -21.91015625 32.13671875 C-21.91065475 32.90222046 -21.91115326 33.66772217 -21.91166687 34.4564209 C-21.90932807 36.07367552 -21.89961087 37.69093389 -21.88305664 39.30810547 C-21.85946181 41.78385967 -21.86249705 44.25853692 -21.86914062 46.734375 C-21.86356374 48.305996 -21.85645379 49.87761247 -21.84765625 51.44921875 C-21.84856766 52.18990601 -21.84947906 52.93059326 -21.85041809 53.69372559 C-21.79885979 57.43032681 -21.67240076 59.10468011 -19.546875 62.29296875 C-16.82824545 62.60904993 -14.3322151 62.73036346 -11.60888672 62.7253418 C-10.78929474 62.73553345 -9.96970276 62.7457251 -9.12527466 62.75622559 C-6.40896891 62.78648469 -3.69301502 62.79564105 -0.9765625 62.8046875 C0.90389185 62.82152464 2.78433487 62.83967356 4.6647644 62.85908508 C9.61969465 62.90669609 14.57457901 62.93643349 19.52966309 62.96252441 C24.5836697 62.9922741 29.63751801 63.03882352 34.69140625 63.08398438 C44.61191483 63.17014384 54.53240648 63.23588062 64.453125 63.29296875 C64.453125 69.89296875 64.453125 76.49296875 64.453125 83.29296875 C53.56048654 83.36094969 42.66799074 83.41590283 31.77518749 83.44840527 C26.71633664 83.46401072 21.65763942 83.48515476 16.59887695 83.51928711 C11.70998452 83.55206405 6.82123915 83.5698602 1.93224525 83.57760048 C0.07407634 83.58311124 -1.78408522 83.5938718 -3.64219093 83.61015892 C-28.42191997 83.81857678 -28.42191997 83.81857678 -37.79296875 75.5 C-43.13371366 68.77946353 -44.14767772 62.74172121 -44.078125 54.29296875 C-44.0819519 53.25785156 -44.08577881 52.22273438 -44.08972168 51.15625 C-44.09243154 48.97785463 -44.08513563 46.79942621 -44.06835938 44.62109375 C-44.04693744 41.30264157 -44.06819371 37.98635426 -44.09375 34.66796875 C-44.09110656 32.54296401 -44.08598125 30.41796061 -44.078125 28.29296875 C-44.08622192 27.30941406 -44.09431885 26.32585937 -44.10266113 25.3125 C-44.00645974 18.18191726 -42.54922671 12.7661438 -37.828125 7.3046875 C-26.67134146 -0.98950026 -13.22642428 -0.11770874 0 0 Z " fill="#17B2EF" transform="translate(207.546875,431.70703125)"/>
<path d="M0 0 C13.53 0 27.06 0 41 0 C41 36.96 41 73.92 41 112 C27.47 112 13.94 112 0 112 C0 75.04 0 38.08 0 0 Z " fill="#1293E2" transform="translate(1235,400)"/>
<path d="M0 0 C0.66397293 -0.00014603 1.32794586 -0.00029205 2.01203918 -0.0004425 C4.19254904 0.00025056 6.37297198 0.0080144 8.5534668 0.01586914 C10.07089695 0.01773548 11.5883277 0.01915836 13.10575867 0.02015686 C17.08909789 0.02396507 21.07240035 0.0337808 25.0557251 0.04486084 C29.12462873 0.0551115 33.19353833 0.0596623 37.26245117 0.06469727 C45.23838134 0.07540465 53.21427463 0.09298765 61.19018555 0.11352539 C61.19018555 5.06352539 61.19018555 10.01352539 61.19018555 15.11352539 C59.28696533 15.13858154 57.38374512 15.1636377 55.42285156 15.18945312 C49.14832591 15.27320655 42.87387669 15.36147816 36.59945774 15.45286465 C32.7937115 15.50812833 28.98795763 15.56155368 25.18212891 15.61083984 C21.5121922 15.6584328 17.84235164 15.71077348 14.17252922 15.76646614 C12.76946328 15.78691276 11.36637095 15.80562196 9.96325874 15.82259941 C8.00441629 15.84659226 6.04565854 15.87722738 4.08691406 15.90820312 C2.96994644 15.92374741 1.85297882 15.93929169 0.7021637 15.95530701 C-1.74842446 15.83171577 -1.74842446 15.83171577 -2.80981445 17.11352539 C-3.13981445 22.06352539 -3.46981445 27.01352539 -3.80981445 32.11352539 C16.65018555 32.11352539 37.11018555 32.11352539 58.19018555 32.11352539 C58.19018555 36.73352539 58.19018555 41.35352539 58.19018555 46.11352539 C38.06018555 46.44352539 17.93018555 46.77352539 -2.80981445 47.11352539 C-2.80981445 52.06352539 -2.80981445 57.01352539 -2.80981445 62.11352539 C-0.09849236 63.46918644 2.07326552 63.27583624 5.10864258 63.31884766 C6.97034592 63.34876549 6.97034592 63.34876549 8.86965942 63.37928772 C10.22910435 63.39627199 11.5885506 63.4131508 12.94799805 63.42993164 C14.33520122 63.4505012 15.72239812 63.47149768 17.10958862 63.49290466 C20.7624606 63.5481252 24.41538914 63.5975345 28.06835938 63.64575195 C31.79521728 63.69596714 35.52199295 63.75165311 39.2487793 63.80688477 C46.56251372 63.91446613 53.87631695 64.01540559 61.19018555 64.11352539 C61.19018555 69.06352539 61.19018555 74.01352539 61.19018555 79.11352539 C52.46226157 79.18147274 43.7345151 79.23644002 35.0063858 79.26896191 C30.95296857 79.28457574 26.89974268 79.305735 22.84643555 79.33984375 C18.93013138 79.372591 15.01401054 79.39041057 11.09757996 79.39815712 C9.60814023 79.4036732 8.11870982 79.41444446 6.62934875 79.43071556 C-10.62012145 79.61156129 -10.62012145 79.61156129 -16.8684082 74.39477539 C-17.32344727 73.80696289 -17.77848633 73.21915039 -18.24731445 72.61352539 C-18.72040039 72.02571289 -19.19348633 71.43790039 -19.6809082 70.83227539 C-21.83559033 67.55179049 -21.95105326 64.64645241 -22.00268555 60.83520508 C-22.01874847 59.75688416 -22.0348114 58.67856323 -22.05136108 57.56756592 C-22.09588568 52.63611523 -22.13687596 47.70479812 -22.15991211 42.77319336 C-22.17646864 40.17381841 -22.20375421 37.57448893 -22.24194336 34.9753418 C-22.29676242 31.22428811 -22.31859535 27.47430095 -22.33325195 23.72290039 C-22.35592133 22.56538269 -22.3785907 21.40786499 -22.40194702 20.215271 C-22.38344208 13.13199631 -21.67805607 9.3632168 -16.80981445 4.11352539 C-11.55018763 0.16880527 -6.41634725 -0.01190417 0 0 Z " fill="#16ACEA" transform="translate(970.809814453125,432.886474609375)"/>
<path d="M0 0 C0.66397293 -0.00029205 1.32794586 -0.00058411 2.01203918 -0.00088501 C4.19265098 0.00050119 6.37291517 0.01602839 8.5534668 0.03173828 C10.07089552 0.03547095 11.58832667 0.03831672 13.10575867 0.04031372 C17.08914914 0.04793023 21.07239252 0.06756155 25.0557251 0.08972168 C29.12461355 0.11022293 33.1935259 0.11932457 37.26245117 0.12939453 C45.23843748 0.15080946 53.21427624 0.18597531 61.19018555 0.22705078 C61.19018555 5.17705078 61.19018555 10.12705078 61.19018555 15.22705078 C59.3172583 15.25210693 57.44433105 15.27716309 55.51464844 15.30297852 C49.33990666 15.38673286 43.16524254 15.47500443 36.99060917 15.56639004 C33.24539757 15.62165309 29.50017821 15.67507833 25.75488281 15.72436523 C22.14329969 15.77195913 18.53181423 15.82429984 14.92034721 15.87999153 C13.53961035 15.90043772 12.15884669 15.919147 10.77806282 15.9361248 C8.85035241 15.96011859 6.92272806 15.99075343 4.99511719 16.02172852 C3.3463131 16.04504494 3.3463131 16.04504494 1.66419983 16.0688324 C-0.75287519 15.9499327 -0.75287519 15.9499327 -1.80981445 17.22705078 C-1.90874385 19.39185875 -1.93952546 21.55998863 -1.93481445 23.72705078 C-1.93739258 24.91298828 -1.9399707 26.09892578 -1.94262695 27.32080078 C-2.14191665 30.119645 -2.14191665 30.119645 -0.80981445 31.22705078 C0.73834084 31.32889999 2.29103964 31.36273851 3.8425293 31.36889648 C4.83446289 31.37593094 5.82639648 31.38296539 6.84838867 31.39021301 C8.47164062 31.39645943 8.47164062 31.39645943 10.12768555 31.40283203 C12.40764253 31.42604684 14.68759046 31.45016483 16.9675293 31.47509766 C20.57061665 31.51010523 24.17337524 31.53948784 27.77661133 31.55297852 C31.24821293 31.56853014 34.71884301 31.60880798 38.19018555 31.65283203 C39.78914673 31.64996941 39.78914673 31.64996941 41.42041016 31.64704895 C49.31142403 31.77498494 55.92667746 33.0490275 61.7253418 38.69580078 C63.93308265 44.01792806 63.72985785 49.02517705 63.62768555 54.72705078 C63.63477539 55.84208984 63.64186523 56.95712891 63.64916992 58.10595703 C63.56848542 68.52046483 63.56848542 68.52046483 60.19018555 73.22705078 C58.2878418 74.87158203 58.2878418 74.87158203 56.25268555 76.03955078 C55.58366211 76.43787109 54.91463867 76.83619141 54.2253418 77.24658203 C49.99191537 79.28610225 46.16675678 79.34922962 41.49389648 79.34057617 C40.49815613 79.34079521 40.49815613 79.34079521 39.4822998 79.34101868 C37.29635304 79.3403241 35.11049235 79.33255309 32.92456055 79.32470703 C31.40570116 79.32284123 29.88684116 79.32141809 28.36798096 79.32041931 C24.37640716 79.31660688 20.38486993 79.30678748 16.39331055 79.29571533 C12.31779474 79.28547381 8.24227302 79.28091582 4.16674805 79.27587891 C-3.82545808 79.26516405 -11.8176275 79.24757758 -19.80981445 79.22705078 C-19.80981445 74.27705078 -19.80981445 69.32705078 -19.80981445 64.22705078 C-17.90659424 64.20199463 -16.00337402 64.17693848 -14.04248047 64.15112305 C-7.76795482 64.06736962 -1.4935056 63.97909801 4.78091335 63.88771152 C8.58665959 63.83244784 12.39241347 63.77902249 16.19824219 63.72973633 C19.86817889 63.68214338 23.53801946 63.62980269 27.20784187 63.57411003 C28.61090781 63.55366341 30.01400014 63.53495421 31.41711235 63.51797676 C33.37595481 63.49398391 35.33471255 63.46334879 37.29345703 63.43237305 C38.41042465 63.41682877 39.52739227 63.40128448 40.6782074 63.38526917 C43.12879555 63.5088604 43.12879555 63.5088604 44.19018555 62.22705078 C44.28927857 59.89545023 44.31989059 57.56075137 44.31518555 55.22705078 C44.31776367 53.94830078 44.3203418 52.66955078 44.32299805 51.35205078 C44.54879447 48.36017834 44.54879447 48.36017834 43.19018555 47.22705078 C41.57526943 47.13026275 39.95619265 47.10189314 38.33837891 47.10107422 C37.30317612 47.09726746 36.26797333 47.09346069 35.20140076 47.08953857 C34.07234818 47.08851135 32.94329559 47.08748413 31.7800293 47.08642578 C29.40436874 47.06808898 27.02871744 47.04851788 24.65307617 47.02783203 C20.8961641 46.99891574 17.13984289 46.97705237 13.3828125 46.9765625 C9.7646809 46.97321879 6.14792191 46.93859796 2.5300293 46.89892578 C1.41514633 46.90599548 0.30026337 46.91306519 -0.84840393 46.92034912 C-7.65382271 46.81468649 -12.65913052 45.92065202 -17.80981445 41.22705078 C-21.43061452 35.49829979 -21.2962052 29.8092482 -21.24731445 23.16455078 C-21.26729492 22.19710938 -21.28727539 21.22966797 -21.30786133 20.23291016 C-21.30374972 14.22584874 -20.77311817 10.8096207 -16.80981445 6.22705078 C-11.52417735 1.34800115 -7.13792244 -0.0264858 0 0 Z " fill="#16AEEB" transform="translate(874.809814453125,432.77294921875)"/>
<path d="M0 0 C6.27 0 12.54 0 19 0 C19.01981934 1.86769043 19.03963867 3.73538086 19.06005859 5.65966797 C19.12776086 11.82248445 19.2045306 17.98513542 19.28752708 24.14776421 C19.3375267 27.88509262 19.38385611 31.62239226 19.421875 35.35986328 C19.45868195 38.96504325 19.50502877 42.56998459 19.55806351 46.17496109 C19.57663202 47.55206248 19.59173088 48.92921506 19.60334396 50.30639267 C19.62016374 52.23154401 19.65033482 54.15656483 19.68115234 56.08154297 C19.69447601 57.17852509 19.70779968 58.2755072 19.7215271 59.4057312 C19.74281843 62.1612181 19.74281843 62.1612181 22 64 C24.04587675 64.30531902 24.04587675 64.30531902 26.41796875 64.25878906 C27.78949097 64.26824554 27.78949097 64.26824554 29.1887207 64.27789307 C30.17831787 64.2738446 31.16791504 64.26979614 32.1875 64.265625 C33.20094482 64.26753845 34.21438965 64.2694519 35.25854492 64.27142334 C37.40381112 64.27278591 39.54908553 64.26908447 41.69433594 64.26074219 C44.98651572 64.25004382 48.27814978 64.26063519 51.5703125 64.2734375 C53.65104288 64.27211592 55.73177291 64.26955355 57.8125 64.265625 C58.80209717 64.26967346 59.79169434 64.27372192 60.8112793 64.27789307 C62.18280151 64.26843658 62.18280151 64.26843658 63.58203125 64.25878906 C64.38874268 64.25719788 65.1954541 64.25560669 66.02661133 64.25396729 C68.23306436 64.1743125 68.23306436 64.1743125 70 62 C70.33232684 59.28965362 70.33232684 59.28965362 70.31884766 56.08154297 C70.33871735 54.84040741 70.35858704 53.59927185 70.37905884 52.32052612 C70.39093611 50.96108173 70.40259892 49.60163545 70.4140625 48.2421875 C70.43276729 46.85497882 70.45234019 45.4677816 70.4727478 44.08059692 C70.52414812 40.42774196 70.56373125 36.77485006 70.60089111 33.12182617 C70.64088148 29.39492603 70.69199639 25.66818051 70.7421875 21.94140625 C70.8390403 14.62770202 70.92238682 7.31393835 71 0 C77.27 0 83.54 0 90 0 C90.11341878 8.30225476 90.20495373 16.60389703 90.25906086 24.90672112 C90.28504291 28.76297904 90.32022818 32.61867486 90.37719727 36.47460938 C90.43192981 40.20292732 90.46150598 43.93070812 90.47438622 47.65939713 C90.48355294 49.07467214 90.501452 50.48992111 90.52865028 51.90496445 C90.68793869 60.54380081 90.33323354 67.87321639 85 75 C79.98262811 79.20719011 74.60385912 80.11844068 68.25683594 80.16113281 C66.52418488 80.17554413 66.52418488 80.17554413 64.75653076 80.19024658 C63.51171936 80.19449646 62.26690796 80.19874634 60.984375 80.203125 C59.05697479 80.21167511 59.05697479 80.21167511 57.09063721 80.22039795 C54.3704794 80.23088905 51.65035096 80.23674364 48.93017578 80.24023438 C45.46252317 80.24570626 41.99526574 80.26971371 38.52773666 80.29820633 C35.20079113 80.32143449 31.87389734 80.32328929 28.546875 80.328125 C26.69180328 80.3466452 26.69180328 80.3466452 24.79925537 80.36553955 C10.84422202 80.32967409 10.84422202 80.32967409 5.48699951 75.68951416 C0.80445042 70.52559524 -0.25341549 65.12778072 -0.22705078 58.35205078 C-0.22689972 57.05115509 -0.22674866 55.7502594 -0.22659302 54.40994263 C-0.21638202 53.00506433 -0.20595007 51.60018763 -0.1953125 50.1953125 C-0.19157846 48.74657385 -0.18873333 47.29783266 -0.18673706 45.84909058 C-0.17913136 42.0514824 -0.15950952 38.25402922 -0.1373291 34.45648193 C-0.11680438 30.57517595 -0.10772122 26.69384471 -0.09765625 22.8125 C-0.07626043 15.20825477 -0.04110362 7.60416892 0 0 Z " fill="#13ABEA" transform="translate(668,432)"/>
<path d="M0 0 C36.63 0 73.26 0 111 0 C111 6.6 111 13.2 111 20 C96.15 20 81.3 20 66 20 C66 40.46 66 60.92 66 82 C58.74 82 51.48 82 44 82 C44 61.54 44 41.08 44 20 C29.48 20 14.96 20 0 20 C0 13.4 0 6.8 0 0 Z " fill="#1BB9EE" transform="translate(412,432)"/>
<path d="M0 0 C0.98632164 -0.00788544 0.98632164 -0.00788544 1.99256897 -0.01593018 C4.15406434 -0.02907466 6.31481623 -0.02041357 8.47631836 -0.01025391 C9.98416789 -0.01227601 11.49201647 -0.01518859 12.99986267 -0.01895142 C16.15462589 -0.02336701 19.30913372 -0.01696769 22.46386719 -0.00292969 C26.50475122 0.01417674 30.54503808 0.0043074 34.58590031 -0.01364708 C37.69746899 -0.02449321 40.80889632 -0.02103508 43.92046928 -0.0132637 C45.41039539 -0.01126474 46.9003344 -0.01371032 48.39024544 -0.02070236 C50.47274868 -0.02833248 52.55428726 -0.01669309 54.63671875 0 C56.41279259 0.00358017 56.41279259 0.00358017 58.2247467 0.00723267 C61.5477219 0.4251679 62.96018898 0.96920368 65.25366211 3.38818359 C65.64656669 6.27751402 65.79112165 8.78098516 65.74975586 11.66943359 C65.75121109 12.47932739 65.75266632 13.28922119 65.75416565 14.12365723 C65.7525065 15.83507893 65.74094323 17.54651552 65.72021484 19.2578125 C65.69126645 21.87873654 65.69960294 24.49763735 65.71264648 27.11865234 C65.70640879 28.7814226 65.69801761 30.44418646 65.68725586 32.10693359 C65.6901915 32.89136841 65.69312714 33.67580322 65.69615173 34.48400879 C65.60251995 39.87904315 65.60251995 39.87904315 63.9140625 42.34326172 C60.30722069 44.61311659 57.06260154 44.51975416 52.91796875 44.53344727 C51.60973648 44.53982712 50.30150421 44.54620697 48.95362854 44.55278015 C47.52369219 44.5543088 46.09375534 44.55542277 44.66381836 44.55615234 C43.19795194 44.55936572 41.73208584 44.56272986 40.26622009 44.5662384 C37.19374854 44.57222595 34.1213051 44.57407867 31.04882812 44.57348633 C27.11339286 44.57338468 23.17813792 44.587041 19.2427454 44.60425854 C16.21527784 44.61538078 13.18785386 44.61740547 10.16036797 44.6168766 C8.70951147 44.61805622 7.25865383 44.622477 5.80781746 44.63020897 C3.77815197 44.64001357 1.74843359 44.63586534 -0.28125 44.63110352 C-1.43580185 44.63252853 -2.5903537 44.63395355 -3.77989197 44.63542175 C-6.68518232 44.3932806 -8.34139643 43.99756288 -10.74633789 42.38818359 C-13.18639401 37.50807136 -12.0588982 30.02219913 -12.09643555 24.59399414 C-12.11302151 22.83344325 -12.14034643 21.07296042 -12.1784668 19.31274414 C-12.23311538 16.77633707 -12.2550865 14.24150553 -12.26977539 11.70458984 C-12.29244476 10.91701797 -12.31511414 10.12944611 -12.33847046 9.31800842 C-12.32983398 7.09350586 -12.32983398 7.09350586 -11.74633789 3.38818359 C-7.92437147 0.30266483 -4.81849305 0.00970649 0 0 Z " fill="#010203" transform="translate(317.746337890625,451.61181640625)"/>
<path d="M0 0 C12.21 0 24.42 0 37 0 C37 27.06 37 54.12 37 82 C24.79 82 12.58 82 0 82 C0 54.94 0 27.88 0 0 Z " fill="#148BE1" transform="translate(1179,430)"/>
<path d="M0 0 C6.27 0 12.54 0 19 0 C19.33 20.79 19.66 41.58 20 63 C38.48 63.33 56.96 63.66 76 64 C76 68.95 76 73.9 76 79 C67.9239768 79.09063217 59.84835383 79.1639054 51.7719574 79.20724869 C48.02111811 79.22805897 44.27064698 79.25625467 40.52001953 79.30175781 C36.89547138 79.3454525 33.27127573 79.36918636 29.64648438 79.37950897 C28.26866106 79.38685832 26.89085545 79.40120946 25.51318359 79.42292023 C17.60191891 79.54255301 11.68427648 79.46759323 5 75 C0.89293702 69.83984395 -0.12588234 66.08822918 -0.11352539 59.60083008 C-0.11367142 58.95665634 -0.11381744 58.3124826 -0.1139679 57.64878845 C-0.11327195 55.52233498 -0.10549448 53.3959694 -0.09765625 51.26953125 C-0.09579094 49.79408313 -0.09436757 48.31863439 -0.09336853 46.84318542 C-0.08955226 42.96174405 -0.07972956 39.08034015 -0.06866455 35.19891357 C-0.05843131 31.23743192 -0.05386681 27.27594419 -0.04882812 23.31445312 C-0.0381065 15.54294969 -0.0205169 7.77148488 0 0 Z " fill="#13A4E6" transform="translate(771,433)"/>
<path d="M0 0 C6.94189562 -0.0458379 13.8832691 -0.08568549 20.82519531 -0.10986328 C23.18816911 -0.11993924 25.55113039 -0.13360029 27.9140625 -0.15087891 C31.30471888 -0.17505724 34.69521084 -0.18646699 38.0859375 -0.1953125 C39.14743011 -0.20563507 40.20892273 -0.21595764 41.30258179 -0.22659302 C42.77388046 -0.22681961 42.77388046 -0.22681961 44.27490234 -0.22705078 C45.14094086 -0.231492 46.00697937 -0.23593323 46.89926147 -0.24050903 C49 0 49 0 51 2 C51.47258908 5.10320261 51.3703622 8.23984834 51.375 11.375 C51.39949219 12.23867188 51.42398438 13.10234375 51.44921875 13.9921875 C51.45501953 15.24515625 51.45501953 15.24515625 51.4609375 16.5234375 C51.46915527 17.28575684 51.47737305 18.04807617 51.48583984 18.83349609 C50.74323209 22.14500422 49.85602539 23.11131247 47 25 C43.43960591 25.55533197 39.92367891 25.4643088 36.328125 25.390625 C35.29057068 25.38496521 34.25301636 25.37930542 33.184021 25.37347412 C29.87221008 25.35109491 26.56148356 25.30089419 23.25 25.25 C21.00392188 25.22993706 18.75782679 25.21168594 16.51171875 25.1953125 C11.00705929 25.15462766 5.50474243 25.07633695 0 25 C0 16.75 0 8.5 0 0 Z " fill="#010405" transform="translate(589,448)"/>
<path d="M0 0 C9.20673407 0.00803594 18.4134675 0.01344764 27.62020421 0.01709497 C28.61209733 0.01748905 28.61209733 0.01748905 29.6240287 0.0178911 C32.9458429 0.01919741 36.26765712 0.02045848 39.58947134 0.021703 C66.56082149 0.03193677 93.53216264 0.04932206 120.50350499 0.07202661 C120.50350499 0.40202661 120.50350499 0.73202661 120.50350499 1.07202661 C86.42936718 1.7834817 52.35666978 2.34282165 18.27654195 2.66436136 C15.94453041 2.68637405 13.61252207 2.70872763 11.28051686 2.73140085 C-27.66179105 3.10935318 -66.56391851 3.07539232 -105.49649501 2.07202661 C-105.49649501 2.73202661 -105.49649501 3.39202661 -105.49649501 4.07202661 C-104.38274501 4.03077661 -103.26899501 3.98952661 -102.12149501 3.94702661 C-98.49649501 4.07202661 -98.49649501 4.07202661 -96.49649501 6.07202661 C-99.72563973 6.10241526 -102.95474625 6.11926345 -106.18399501 6.13452661 C-107.49400477 6.14709497 -107.49400477 6.14709497 -108.83047938 6.15991724 C-115.08829043 6.18172146 -121.31180207 5.9570808 -127.55899501 5.63452661 C-137.17668456 5.14195368 -146.79659138 4.81856191 -156.42227626 4.53687036 C-157.53842342 4.50419659 -157.53842342 4.50419659 -158.67711902 4.47086275 C-163.27157195 4.33707168 -167.86610639 4.206258 -172.46066737 4.07623804 C-176.42382358 3.96365247 -180.38691367 3.84878472 -184.35001063 3.73413599 C-192.06544411 3.51125869 -199.78094451 3.29081954 -207.49649501 3.07202661 C-207.49649501 2.41202661 -207.49649501 1.75202661 -207.49649501 1.07202661 C-138.32926162 0.17825236 -69.17252749 -0.06152869 0 0 Z " fill="#116BBA" transform="translate(895.4964950084686,524.9279733896255)"/>
<path d="M0 0 C27.06 0 54.12 0 82 0 C82 6.6 82 13.2 82 20 C71.07281603 20.04527598 60.14569489 20.08193067 49.21843815 20.10362434 C44.14388085 20.11403886 39.06939134 20.12815535 33.99487305 20.15087891 C29.09303055 20.17269059 24.19125307 20.18458615 19.28936577 20.18975449 C17.42397476 20.19343533 15.55858711 20.20062295 13.69322395 20.21146011 C11.07022681 20.22608581 8.44749457 20.22797334 5.82446289 20.22705078 C5.0620076 20.23424133 4.29955231 20.24143188 3.51399231 20.24884033 C-1.87253645 20.22848595 -6.79068284 19.34909494 -12 18 C-11.67 17.34 -11.34 16.68 -11 16 C-10.02145805 16.24398781 -10.02145805 16.24398781 -9.02314758 16.49290466 C-5.21396529 17.13184753 -1.47881041 17.13133974 2.37036133 17.11352539 C3.20014496 17.11367142 4.02992859 17.11381744 4.88485718 17.1139679 C7.61727547 17.11327333 10.34962492 17.10550229 13.08203125 17.09765625 C14.9806057 17.09579045 16.87918063 17.09436731 18.77775574 17.09336853 C23.76721534 17.0895561 28.75664568 17.0797367 33.74609375 17.06866455 C38.84049077 17.05842303 43.93489252 17.05386504 49.02929688 17.04882812 C59.01954408 17.03811328 69.0097696 17.02105216 79 17 C79.33 12.05 79.66 7.1 80 2 C53.6 2 27.2 2 0 2 C0 1.34 0 0.68 0 0 Z " fill="#1080C0" transform="translate(190,495)"/>
<path d="M0 0 C16.33332501 -0.03045098 32.66665054 -0.05092228 49 -0.0625 C50.19917431 -0.06335602 51.39834862 -0.06421204 52.63386154 -0.06509399 C88.76717754 -0.08790147 124.87750681 0.04560063 161 1 C161 1.66 161 2.32 161 3 C142.29899764 4.40196927 123.76665592 5.33035413 105 5 C105 4.67 105 4.34 105 4 C107.64 4 110.28 4 113 4 C113 3.34 113 2.68 113 2 C112.26276703 2.01252808 111.52553406 2.02505615 110.76596069 2.03796387 C101.30239883 2.19784858 91.8387459 2.35144894 82.375 2.5 C81.24040155 2.51781588 81.24040155 2.51781588 80.08288193 2.53599167 C53.38709807 2.95275272 26.69931485 3.13410521 0 3 C0 2.01 0 1.02 0 0 Z " fill="#14B2D9" transform="translate(1181,525)"/>
<path d="M0 0 C12.41321733 -0.02317605 24.82642951 -0.04094196 37.23966408 -0.05181217 C43.00369659 -0.05702946 48.76771429 -0.06410621 54.53173828 -0.07543945 C60.09491496 -0.08630926 65.6580774 -0.09228554 71.22126389 -0.09487724 C73.34311523 -0.0967241 75.46496579 -0.10033052 77.58681107 -0.10573006 C80.56000703 -0.11299476 83.53314424 -0.11398864 86.50634766 -0.11352539 C87.3824469 -0.11712067 88.25854614 -0.12071594 89.16119385 -0.12442017 C93.55691125 -0.11701504 97.67188352 0.11355964 102 1 C102 1.66 102 2.32 102 3 C103.11375 2.95875 104.2275 2.9175 105.375 2.875 C109 3 109 3 111 5 C107.77085527 5.03038865 104.54174876 5.04723684 101.3125 5.0625 C100.00249023 5.07506836 100.00249023 5.07506836 98.66601562 5.08789062 C92.40820458 5.10969484 86.18469293 4.88505419 79.9375 4.5625 C70.31981045 4.06992707 60.69990362 3.7465353 51.07421875 3.46484375 C49.95807158 3.43216998 49.95807158 3.43216998 48.81937599 3.39883614 C44.22492306 3.26504507 39.63038862 3.13423139 35.03582764 3.00421143 C31.07267143 2.89162586 27.10958134 2.77675811 23.14648438 2.66210938 C15.4310509 2.43923208 7.7155505 2.21879293 0 2 C0 1.34 0 0.68 0 0 Z " fill="#1959B9" transform="translate(688,526)"/>
<path d="M0 0 C0.33 0 0.66 0 1 0 C1.01030746 1.0184198 1.02061493 2.0368396 1.03123474 3.08612061 C1.12895569 12.67986027 1.2316886 22.27353489 1.33933926 31.86716843 C1.39452319 36.79944386 1.44793599 41.73172526 1.49731445 46.6640625 C1.54502476 51.42328285 1.59737005 56.18243164 1.65294075 60.94156647 C1.67333408 62.7580309 1.69205213 64.57451494 1.70907402 66.3910141 C1.73318492 68.93359972 1.76323034 71.4760507 1.79467773 74.01855469 C1.80331093 75.14712387 1.80331093 75.14712387 1.81211853 76.29849243 C1.85981418 79.6870917 2.04933642 82.74441671 3 86 C3.01544048 87.95348104 2.96851529 89.90788921 2.87890625 91.859375 C2.83580322 92.86452148 2.7927002 93.86966797 2.74829102 94.90527344 C2.68697998 96.1740332 2.62566895 97.44279297 2.5625 98.75 C2.376875 102.7925 2.19125 106.835 2 111 C14.21 111 26.42 111 39 111 C38.979375 107.535 38.95875 104.07 38.9375 100.5 C38.90173467 87.98038945 39.37021831 75.50183651 40 63 C40.33 63 40.66 63 41 63 C41 79.17 41 95.34 41 112 C27.47 112 13.94 112 0 112 C0 75.04 0 38.08 0 0 Z " fill="#126CBC" transform="translate(1235,400)"/>
<path d="M0 0 C2.97 0 5.94 0 9 0 C8.08180049 21.25534182 8.08180049 21.25534182 7.5 31.0625 C7.4278125 32.29097656 7.355625 33.51945312 7.28125 34.78515625 C7.03515046 37.59821072 6.62393348 40.24949323 6 43 C5.34 43 4.68 43 4 43 C3.41732192 39.12813516 2.84846203 35.254486 2.29101562 31.37890625 C2.00817342 29.4312814 1.71517387 27.48514011 1.421875 25.5390625 C0.19088623 16.92214109 -0.24244277 8.69595082 0 0 Z " fill="#07A6E8" transform="translate(1158,471)"/>
<path d="M0 0 C1.16740723 0.01078583 1.16740723 0.01078583 2.35839844 0.02178955 C3.58778641 0.02135147 3.58778641 0.02135147 4.8420105 0.02090454 C7.55835458 0.02230089 10.27442633 0.03787632 12.99072266 0.05352783 C14.87116343 0.05725688 16.75160615 0.06010436 18.63204956 0.06210327 C23.58707013 0.06974826 28.5419739 0.08940415 33.49694824 0.11151123 C38.55084655 0.13195105 43.6047637 0.14110099 48.65869141 0.15118408 C58.57932396 0.17264926 68.49983908 0.20783842 78.42041016 0.24884033 C78.42041016 6.84884033 78.42041016 13.44884033 78.42041016 20.24884033 C76.93541016 19.75384033 76.93541016 19.75384033 75.42041016 19.24884033 C75.75041016 13.63884033 76.08041016 8.02884033 76.42041016 2.24884033 C48.70041016 2.24884033 20.98041016 2.24884033 -7.57958984 2.24884033 C-5.04396701 -0.28678251 -3.45753242 0.01339729 0 0 Z " fill="#2AB2CF" transform="translate(193.57958984375,431.75115966796875)"/>
<path d="M0 0 C0.99 1.485 0.99 1.485 2 3 C-2.93589112 3.80308701 -7.71932633 4.14859499 -12.72363281 4.14526367 C-13.46110748 4.14862228 -14.19858215 4.1519809 -14.95840454 4.15544128 C-17.3733289 4.16486906 -19.78818344 4.16688957 -22.203125 4.16796875 C-23.88987252 4.17118464 -25.57661976 4.17454896 -27.2633667 4.17805481 C-30.78691251 4.18402385 -34.31043387 4.18589676 -37.83398438 4.18530273 C-42.35231464 4.18520069 -46.87048925 4.19890623 -51.3887825 4.21607494 C-54.86656418 4.22717593 -58.34430782 4.22922261 -61.82210541 4.22869301 C-63.48870129 4.22987394 -65.15529812 4.23430206 -66.82187653 4.24202538 C-69.14601226 4.25179637 -71.46980434 4.24895994 -73.79394531 4.24291992 C-74.4828183 4.24853943 -75.17169128 4.25415894 -75.88143921 4.25994873 C-79.49265409 4.23603777 -80.90059683 4.06626878 -84 2 C-80.17930052 0.7634891 -76.38600137 0.87354119 -72.41748047 0.90234375 C-71.65933044 0.90380402 -70.90118042 0.90526428 -70.12005615 0.9067688 C-68.47767356 0.91056797 -66.83529504 0.91667734 -65.19292831 0.92483521 C-62.59606863 0.93760384 -59.99926003 0.94411538 -57.40237427 0.94897461 C-51.89322656 0.96039779 -46.38412102 0.97965082 -40.875 1 C-34.48473541 1.0235711 -28.09449468 1.04396405 -21.70419693 1.05593872 C-19.14154113 1.06243823 -16.5789584 1.07494433 -14.0163269 1.08764648 C-12.45212875 1.09127756 -10.88792991 1.09462947 -9.32373047 1.09765625 C-8.24990616 1.10540573 -8.24990616 1.10540573 -7.15438843 1.11331177 C-3.45326782 1.16664694 -3.45326782 1.16664694 0 0 Z " fill="#0E7BC1" transform="translate(385,511)"/>
<path d="M0 0 C13.86 0 27.72 0 42 0 C42 21.12 42 42.24 42 64 C41.67 64 41.34 64 41 64 C40.84590614 56.52421193 40.69772749 49.04833108 40.5570364 41.57227802 C40.49151887 38.10061042 40.4239876 34.62900666 40.35180664 31.1574707 C40.26885599 27.16367567 40.19474998 23.16975859 40.12109375 19.17578125 C40.09405869 17.93290848 40.06702362 16.69003571 40.03916931 15.40950012 C40.01907303 14.24867416 39.99897675 13.08784821 39.97827148 11.8918457 C39.95828598 10.87258499 39.93830048 9.85332428 39.91770935 8.80317688 C39.99753257 6.08405145 40.38154336 3.64398306 41 1 C39.99839844 1.165 38.99679687 1.33 37.96484375 1.5 C31.20043157 2.3468561 24.36636365 2.06735705 17.5625 2 C14.8345952 1.97347563 12.10692249 1.95355502 9.37890625 1.9375 C8.1782251 1.92589844 6.97754395 1.91429687 5.74047852 1.90234375 C3.08762073 1.68522038 3.08762073 1.68522038 2 3 C1.93616038 5.54691483 1.9337276 8.06735433 1.97265625 10.61328125 C1.98530767 12.18684672 1.99766825 13.76041455 2.00976562 15.33398438 C2.0345559 17.82258387 2.06248066 20.31106203 2.09594727 22.79956055 C2.1261951 25.19580859 2.1439434 27.59190286 2.16015625 29.98828125 C2.17361588 30.73008133 2.1870755 31.47188141 2.20094299 32.23616028 C2.2207423 36.32169299 1.88290251 38.23419497 0 42 C0 28.14 0 14.28 0 0 Z " fill="#19CAF2" transform="translate(1296,359)"/>
<path d="M0 0 C4.3050091 -0.02483806 8.60997951 -0.04292512 12.91503906 -0.05493164 C14.37761157 -0.05994045 15.84017911 -0.06674938 17.30273438 -0.07543945 C19.41277291 -0.08765698 21.52274487 -0.09326295 23.6328125 -0.09765625 C25.53377686 -0.10551147 25.53377686 -0.10551147 27.47314453 -0.11352539 C30.747196 -0.00813747 33.78889152 0.37549774 37 1 C37 1.66 37 2.32 37 3 C38.11375 2.95875 39.2275 2.9175 40.375 2.875 C44 3 44 3 46 5 C34.77039381 5.10567893 23.53785363 5.10440172 12.3125 4.75 C10.97795776 4.72885132 10.97795776 4.72885132 9.61645508 4.70727539 C8.79040771 4.67496826 7.96436035 4.64266113 7.11328125 4.609375 C6.02720581 4.5779541 6.02720581 4.5779541 4.91918945 4.54589844 C2.24759664 3.78598475 1.44990858 2.28863983 0 0 Z " fill="#1659CC" transform="translate(753,526)"/>
<path d="M0 0 C11.88 0 23.76 0 36 0 C36 0.66 36 1.32 36 2 C31.76850764 2.2891225 27.53674254 2.57375568 23.3046875 2.85449219 C21.86938622 2.95030755 20.43416183 3.04728291 18.99902344 3.14550781 C10.98963643 3.69287178 3.03370108 4.12577223 -5 4 C-5 3.34 -5 2.68 -5 2 C-3.35 2 -1.7 2 0 2 C0 1.34 0 0.68 0 0 Z " fill="#29CCDF" transform="translate(1306,526)"/>
<path d="M0 0 C2.97 0 5.94 0 9 0 C9.14285714 9.57142857 9.14285714 9.57142857 8 14 C7.34 14 6.68 14 6 14 C6 12.68 6 11.36 6 10 C5.195625 10.020625 4.39125 10.04125 3.5625 10.0625 C1 10 1 10 0 9 C-0.14193337 5.99668982 -0.04236378 3.00782866 0 0 Z " fill="#0EB7E1" transform="translate(1158,471)"/>
<path d="M0 0 C2 2 2 2 2.23046875 5.08203125 C2.20919922 6.92861328 2.20919922 6.92861328 2.1875 8.8125 C2.17783203 10.64748047 2.17783203 10.64748047 2.16796875 12.51953125 C2.02525813 15.47662799 1.68369865 18.12846565 1 21 C0.34 21 -0.32 21 -1 21 C-1.66 14.73 -2.32 8.46 -3 2 C-2.01 1.34 -1.02 0.68 0 0 Z " fill="#0967D6" transform="translate(1163,493)"/>
<path d="M0 0 C9.9 0 19.8 0 30 0 C30 0.66 30 1.32 30 2 C28.35 2 26.7 2 25 2 C25 2.66 25 3.32 25 4 C20.05 4 15.1 4 10 4 C10 3.67 10 3.34 10 3 C12.64 3 15.28 3 18 3 C18 2.34 18 1.68 18 1 C12.06 1 6.12 1 0 1 C0 0.67 0 0.34 0 0 Z " fill="#23DAF7" transform="translate(1276,526)"/>
<path d="M0 0 C6.625 -0.125 6.625 -0.125 10 1 C11.4264314 1.11322825 12.8572249 1.17595476 14.2878418 1.20532227 C15.14850754 1.22526749 16.00917328 1.24521271 16.8959198 1.26576233 C18.28355278 1.29083107 18.28355278 1.29083107 19.69921875 1.31640625 C20.64940384 1.33718735 21.59958893 1.35796844 22.5785675 1.37937927 C25.61480456 1.44478052 28.65112831 1.50371604 31.6875 1.5625 C33.74545169 1.60569417 35.80339459 1.64930876 37.86132812 1.69335938 C42.90746316 1.80045231 47.95368543 1.90174646 53 2 C53 2.33 53 2.66 53 3 C46.41637475 3.05080722 39.83280029 3.08577864 33.24902344 3.10986328 C31.01039745 3.11990632 28.77178452 3.13354331 26.53320312 3.15087891 C23.31116505 3.17520157 20.08930079 3.18650026 16.8671875 3.1953125 C15.37153763 3.21079636 15.37153763 3.21079636 13.84567261 3.22659302 C8.82138033 3.22739999 4.70619636 3.00307916 0 1 C0 0.67 0 0.34 0 0 Z " fill="#1096E4" transform="translate(677,509)"/>
<path d="M0 0 C-0.33 0.99 -0.66 1.98 -1 3 C-1 2.34 -1 1.68 -1 1 C-11.55867114 2.45224441 -18.1228549 4.79870462 -26 12 C-25.29941992 8.20720441 -23.88147146 6.54614159 -20.7890625 4.171875 C-14.13783299 -0.18482555 -7.79435655 -0.38685226 0 0 Z " fill="#25BBE1" transform="translate(1127,455)"/>
<path d="M0 0 C0.33 0 0.66 0 1 0 C1.06058594 0.61488281 1.12117188 1.22976563 1.18359375 1.86328125 C1.26738281 2.67152344 1.35117188 3.47976563 1.4375 4.3125 C1.51871094 5.11300781 1.59992188 5.91351563 1.68359375 6.73828125 C1.95265693 9.16087179 1.95265693 9.16087179 3 12 C2.68660077 13.6705298 2.35064135 15.3368886 2 17 C1.95805545 18.89536927 1.95862741 20.79211816 2 22.6875 C2.11024643 27.77950713 2.11024643 27.77950713 1 30 C1.66 30.33 2.32 30.66 3 31 C2.01 31.66 1.02 32.32 0 33 C0 22.11 0 11.22 0 0 Z " fill="#0A9BDA" transform="translate(1179,430)"/>
<path d="M0 0 C0.66 0 1.32 0 2 0 C2 4.95 2 9.9 2 15 C-3.61 15 -9.22 15 -15 15 C-15 14.67 -15 14.34 -15 14 C-10.05 13.34 -5.1 12.68 0 12 C0 8.04 0 4.08 0 0 Z " fill="#118ADD" transform="translate(586,497)"/>
<path d="M0 0 C1.11084961 0.07831055 1.11084961 0.07831055 2.24414062 0.15820312 C4.05902709 0.28700152 5.87333325 0.42393262 7.6875 0.5625 C7.6875 0.8925 7.6875 1.2225 7.6875 1.5625 C0.66110585 2.31055717 -6.24641809 2.70044954 -13.3125 2.5625 C-13.3125 1.9025 -13.3125 1.2425 -13.3125 0.5625 C-8.82082172 -0.63350901 -4.57980207 -0.3560704 0 0 Z " fill="#19B5D1" transform="translate(1314.3125,527.4375)"/>
<path d="M0 0 C0.66 0 1.32 0 2 0 C2.1953125 6.0546875 2.1953125 6.0546875 2 8 C1.34 8.66 0.68 9.32 0 10 C-1.32 10 -2.64 10 -4 10 C-3.625 7.0625 -3.625 7.0625 -3 4 C-2.34 3.67 -1.68 3.34 -1 3 C-0.67 2.01 -0.34 1.02 0 0 Z " fill="#0D7FD0" transform="translate(1164,485)"/>
<path d="M0 0 C0.66 0.33 1.32 0.66 2 1 C1.236875 1.474375 0.47375 1.94875 -0.3125 2.4375 C-3.88608115 5.84486807 -4.76849064 9.31425707 -6 14 C-6.33 14 -6.66 14 -7 14 C-7.48867825 6.79199579 -7.48867825 6.79199579 -5.1875 3.0625 C-3 1 -3 1 0 0 Z " fill="#17C8EE" transform="translate(862,437)"/>
<path d="M0 0 C0.33 0 0.66 0 1 0 C1.18451025 9.41002278 1.18451025 9.41002278 0 14 C-0.66 14 -1.32 14 -2 14 C-2.33 10.37 -2.66 6.74 -3 3 C-2.34 3.66 -1.68 4.32 -1 5 C-0.67 3.35 -0.34 1.7 0 0 Z " fill="#053287" transform="translate(1164,500)"/>
<path d="M0 0 C0.33 0.99 0.66 1.98 1 3 C-1.64 5.97 -4.28 8.94 -7 12 C-7 8.19654123 -5.86213669 7.22298985 -3.5 4.3125 C-2.8503125 3.50425781 -2.200625 2.69601562 -1.53125 1.86328125 C-1.0259375 1.24839844 -0.520625 0.63351562 0 0 Z " fill="#10A6DD" transform="translate(1169,537)"/>
<path d="M0 0 C5.94 0 11.88 0 18 0 C18 0.33 18 0.66 18 1 C13.05 1 8.1 1 3 1 C3 1.66 3 2.32 3 3 C2.01 3.33 1.02 3.66 0 4 C0 2.68 0 1.36 0 0 Z " fill="#2CD5F9" transform="translate(739,433)"/>
<path d="M0 0 C0.66 0.33 1.32 0.66 2 1 C-0.64 3.64 -3.28 6.28 -6 9 C-6.33 8.01 -6.66 7.02 -7 6 C-4.69 4.02 -2.38 2.04 0 0 Z " fill="#11B1E0" transform="translate(1179,526)"/>
<path d="M0 0 C5.19209404 -0.21192221 9.126739 0.4087311 14 2 C14 2.33 14 2.66 14 3 C8.78020872 3.1799928 4.92737019 2.97094808 0 1 C0 0.67 0 0.34 0 0 Z " fill="#0E84CE" transform="translate(677,509)"/>
<path d="M0 0 C3.63 0 7.26 0 11 0 C11 0.33 11 0.66 11 1 C9.72125 1.0825 8.4425 1.165 7.125 1.25 C4.94666582 1.45869931 4.94666582 1.45869931 3 2 C1.4100567 3.92064793 1.4100567 3.92064793 1 6 C0.67 6 0.34 6 0 6 C0 4.02 0 2.04 0 0 Z " fill="#159EEF" transform="translate(855,498)"/>
<path d="M0 0 C2.97 0 5.94 0 9 0 C9.33 0.99 9.66 1.98 10 3 C3.375 2.25 3.375 2.25 0 0 Z " fill="#097BC8" transform="translate(779,509)"/>
<path d="M0 0 C0.99 0.33 1.98 0.66 3 1 C-0.465 3.97 -0.465 3.97 -4 7 C-3.04065919 3.16263678 -2.76390737 2.40339772 0 0 Z " fill="#19C1E8" transform="translate(1105,460)"/>
<path d="M0 0 C0 1.65 0 3.3 0 5 C-1.98 5.99 -1.98 5.99 -4 7 C-3.625 4.0625 -3.625 4.0625 -3 1 C-1 0 -1 0 0 0 Z " fill="#0787E6" transform="translate(1164,488)"/>
</svg>
